<svg version="1.2" xmlns="http://www.w3.org/2000/svg" viewBox="0 0 579 579" width="579" height="579">
	<title>giantbomb</title>
	<style>
		.s0 { fill: #f7961d } 
		.s1 { fill: #ffffff } 
		.s2 { fill: #888888 } 
		.s3 { fill: #ec2024 } 
		.s4 { fill: #666666 } 
		.s5 { fill: #000000 } 
	</style>
	<path class="s0" d="m441.27 91.8q1.23 5.36 1.4 10.85 0.18 5.5-0.7 10.92-0.88 5.43-2.79 10.58-1.91 5.16-4.77 9.85c-8.1 13.08-22.41 23.08-37.78 25.33q0.21 0.25 0.42 0.5 0.2 0.26 0.4 0.52 0.19 0.26 0.38 0.52 0.19 0.27 0.37 0.54c1.84 2.81 0.46 7.78-3.7 7.08-6.94-1.17-11.51-8.89-13.39-15.14q-0.22-0.74-0.41-1.49-0.18-0.76-0.32-1.52-0.14-0.76-0.23-1.53-0.1-0.77-0.15-1.54c-7.9 9.09-12.2 22.5-13.26 33.41q-0.13 1.31-0.2 2.7 3.89 2.27 7.62 4.78 3.74 2.5 7.31 5.24 3.58 2.73 6.98 5.68 3.39 2.95 6.6 6.11 2.56 2.47 5 5.05 2.44 2.58 4.77 5.27 2.32 2.68 4.52 5.48 2.19 2.79 4.26 5.68 2.28-0.96 4.5-2.05 2.21-1.09 4.37-2.31 2.15-1.21 4.24-2.54 2.08-1.33 4.09-2.77c22-15.85 37.67-41.13 37.68-68.75 0.01-21.49-10.26-43.19-27.21-56.45z"/>
	<path class="s1" d="m395.06 205.19q5.06 4.9 9.72 10.25c10.4-4.88 20.3-11.58 26.43-21.46 6.43-10.37 8.16-23.53 2.42-34.56-0.58-1.11-2.33-1.77-3.33-0.72q-2.53 2.71-5.28 5.2-2.75 2.48-5.71 4.72-2.96 2.24-6.1 4.21-3.14 1.98-6.44 3.67c-5 2.5-10.67 4.42-16.31 3.27-5.33-1.09-9.17-4.86-13-8.42-1-0.91-3-0.7-3.08 1q-0.09 2.15-0.03 4.3 0.06 2.14 0.26 4.28 0.21 2.14 0.55 4.27 0.35 2.12 0.84 4.21 2.54 1.78 5 3.65 2.46 1.88 4.85 3.86 2.38 1.97 4.69 4.04 2.3 2.07 4.52 4.23z"/>
	<path fill-rule="evenodd" class="s2" d="m360.82 446.69c-56.31 56.31-147.34 56.31-203.65 0-56.3-56.31-56.3-147.34 0-203.65 56.31-56.3 147.34-56.3 203.65 0 56.31 56.31 56.31 147.34 0 203.65z"/>
	<path class="s3" d="m441.27 91.8q0.42 1.85 0.71 3.73 0.29 1.87 0.46 3.77 0.17 1.89 0.21 3.78 0.05 1.9-0.03 3.8c3.15 6.71 6.71 13.27 9.44 20.17 4.35 11 6.83 21.8 5.45 33.63-1.25 10.66-5 20.86-9.76 30.42-2.38 4.76-5 9.39-7.77 14-1.87 3.11-4.13 6.2-5.93 9.46 20.28-15.94 34.42-40 34.43-66.29 0.01-21.51-10.26-43.21-27.21-56.47z"/>
	<path class="s4" d="m189.34 415.41c-12.15-12.15-22.04-26.38-29.17-42.02-7.14-15.63-11.43-32.42-12.65-49.57-1.22-17.14 0.64-34.37 5.48-50.86 4.85-16.49 12.61-31.98 22.92-45.73-34.37 24.3-56.38 62.43-60.25 104.34-3.87 41.92 10.8 83.43 40.14 113.61 29.34 30.18 70.42 46.02 112.43 43.33 42.01-2.68 80.74-23.61 106-57.28-13.76 9.72-29.12 16.95-45.38 21.35-16.26 4.41-33.17 5.93-49.96 4.5-16.78-1.44-33.19-5.81-48.46-12.92-15.28-7.1-29.19-16.84-41.1-28.75z"/>
	<path class="s1" d="m380.91 321.48q-1.24 0-2.42-0.4-1.18-0.41-2.16-1.17-0.98-0.76-1.67-1.8-0.69-1.04-1-2.24-1.99-7.6-4.96-14.87-2.98-7.27-6.89-14.08-3.91-6.82-8.69-13.05-4.77-6.24-10.33-11.79c-1.4-1.41-2.19-3.32-2.19-5.3-0.01-1.99 0.79-3.9 2.19-5.31 1.41-1.4 3.32-2.19 5.3-2.2 1.99 0 3.9 0.8 5.31 2.2q6.26 6.26 11.64 13.28 5.38 7.03 9.78 14.71 4.41 7.67 7.76 15.87 3.35 8.19 5.59 16.75c0.29 1.11 0.32 2.27 0.09 3.39-0.23 1.12-0.72 2.18-1.42 3.08-0.7 0.91-1.6 1.64-2.63 2.15-1.02 0.5-2.15 0.77-3.3 0.77z"/>
	<path fill-rule="evenodd" class="s5" d="m226.89 286.65c-6.85 25.62-22.75 43.56-35.56 40.13-12.81-3.42-17.62-26.9-10.77-52.52 6.86-25.62 22.75-43.56 35.56-40.14 12.82 3.43 17.63 26.91 10.77 52.53z"/>
	<path fill-rule="evenodd" class="s5" d="m319.96 297.98c-3.7 29.21-18.5 51.33-33.11 49.48-14.6-1.85-23.41-26.97-19.7-56.18 3.7-29.21 18.5-51.33 33.11-49.48 14.6 1.86 23.41 26.97 19.7 56.18z"/>
	<path fill-rule="evenodd" class="s1" d="m313.47 279.79c-1.94 15.32-11.45 26.69-21.27 25.44-9.82-1.24-16.19-14.63-14.25-29.95 1.95-15.31 11.46-26.69 21.28-25.44 9.82 1.24 16.18 14.63 14.24 29.95z"/>
	<path fill-rule="evenodd" class="s1" d="m222.3 266.39c-3.08 12.42-12.01 20.86-19.97 18.89-7.96-1.98-11.9-13.61-8.82-26.03 3.08-12.42 12-20.87 19.96-18.89 7.96 1.97 11.91 13.61 8.83 26.03z"/>
	<path class="s2" d="m371.43 232.44q6.61 6.58 12.4 13.9 5.8 7.31 10.69 15.26 4.89 7.94 8.82 16.41 3.93 8.46 6.83 17.33 0.21-0.16 0.41-0.33 0.2-0.17 0.39-0.34 0.2-0.17 0.39-0.35 0.19-0.18 0.38-0.36c14.06-14.06 2.66-48.25-25.46-76.37-28.12-28.12-62.28-39.51-76.37-25.46q-0.18 0.19-0.36 0.38-0.18 0.19-0.35 0.39-0.17 0.19-0.34 0.39-0.17 0.2-0.33 0.41 8.87 2.9 17.33 6.83 8.47 3.93 16.41 8.82 7.95 4.89 15.26 10.69 7.32 5.79 13.9 12.4z"/>
	<path class="s5" d="m387.31 190.71c2.8 3.45 7.07 5.74 10.17 9 3.1 3.26 5.37 7.36 8.15 11 2.27 3 6.34-0.24 5.21-3.36-1.75-4.81-5.69-9.25-9.34-12.74-3.33-3.18-7.55-6.94-12.22-7.72-2.06-0.34-3.16 2.31-2 3.77zm6.69-5.97c4 3.17 8.26 5.62 11.82 9.35 3.22 3.37 5.31 7.87 8.72 10.93 1.83 1.64 4.58-0.57 4.22-2.69-0.83-4.93-5.6-9.85-9.11-13.15-3.81-3.57-8.34-7.22-13.46-8.62-0.54-0.19-1.13-0.17-1.66 0.04-0.54 0.21-0.98 0.6-1.24 1.11-0.27 0.51-0.34 1.09-0.21 1.65 0.13 0.56 0.46 1.05 0.92 1.38zm9-6.48l-0.07-0.18-1.54 1.3c2.84 2 6.07 3.32 8.82 5.59 3.79 3.12 6.25 7 9.45 10.65q0.36 0.38 0.88 0.45 0.51 0.05 0.95-0.22 0.44-0.29 0.6-0.79 0.15-0.5-0.05-0.98c-1.71-4.38-5.49-8.08-9-11.05-2.39-2-7.55-6.61-11-6q-0.26 0.05-0.49 0.2-0.22 0.14-0.38 0.36-0.15 0.22-0.21 0.48-0.06 0.27-0.02 0.53 0.02 0.11 0.06 0.21 0.03 0.1 0.07 0.2 0.05 0.1 0.11 0.19 0.05 0.09 0.12 0.18c0.69 1 2.07-0.09 1.69-1.09zm4.93-2.7c2.74 1.88 5.57 3.61 8.16 5.69q1 0.84 1.94 1.74 0.94 0.9 1.82 1.86 0.88 0.97 1.69 1.99 0.81 1.02 1.55 2.09c0.35 0.48 1.13 0 0.86-0.56-3-6-9.82-10.32-15.49-13.6-0.52-0.3-1.05 0.43-0.54 0.78z"/>
	<path class="s5" d="m468.85 110.61q-2.84-5.7-6.57-10.87-3.72-5.16-8.24-9.65-4.52-4.49-9.71-8.18-5.19-3.69-10.91-6.49c-3.94-1.91-8.12 3.14-6.22 6.8 7.54 14.52 7.58 32.72-1.35 46.71-8.1 12.69-21 19.15-35.33 21.82 0-0.12-0.08-0.23-0.12-0.35-1.36-4.65-0.62-9 1.42-13.34 2.04-4.34-4.28-8.64-7.7-5.4-7.3 6.92-13.81 13.29-18.4 22.42q-1.47 2.95-2.65 6.02-1.19 3.07-2.08 6.23-0.89 3.17-1.49 6.41-0.59 3.23-0.88 6.51 4 1.91 7.94 4.14c0-0.92 0.11-1.82 0.2-2.7 1.06-10.92 5.36-24.33 13.26-33.41q0.05 0.77 0.15 1.54 0.09 0.77 0.23 1.53 0.14 0.76 0.32 1.52 0.19 0.75 0.41 1.49c1.88 6.25 6.45 14 13.39 15.14 4.16 0.7 5.53-4.27 3.7-7.08q-0.18-0.27-0.37-0.54-0.19-0.26-0.38-0.52-0.2-0.26-0.4-0.52-0.21-0.25-0.42-0.5c15.35-2.26 29.66-12.26 37.76-25.34q2.86-4.7 4.77-9.85 1.91-5.16 2.79-10.59 0.88-5.43 0.71-10.92-0.18-5.5-1.41-10.86c16.95 13.26 27.22 35 27.21 56.42 0 27.63-15.68 52.9-37.68 68.75q-2 1.45-4.09 2.78-2.08 1.33-4.23 2.54-2.15 1.22-4.37 2.31-2.22 1.09-4.49 2.06 2.3 3.24 4.4 6.62 1.23-0.48 2.44-1 1.21-0.52 2.41-1.07 1.2-0.56 2.37-1.15 1.18-0.59 2.34-1.22 5.15-2.81 9.93-6.22 4.78-3.41 9.13-7.36 4.34-3.95 8.18-8.39 3.84-4.44 7.13-9.3c17.44-25.74 21.11-58.86 6.9-86.94zm-216.68 321.9c9.83-13.32 24.63-18.51 40.66-18.51 0.68 0 0.68-3.71-0.1-3.91-16.67-4.13-33.88 7.34-40.61 22.1v0.32z"/>
	<path class="s1" d="m339.61 354.78c-1.31-2.47-4.52-3-6.84-1.79l-18.24 9.47q-3.45 0.72-6.89 1.54-3.43 0.82-6.84 1.73-3.4 0.91-6.79 1.91-3.38 1.01-6.73 2.11-0.21-0.93-0.79-1.69-0.57-0.75-1.41-1.2-0.84-0.44-1.79-0.5-0.95-0.05-1.84 0.29c-24.15 7.26-49.64 7.8-74.61 5.72q-0.37-0.03-0.75 0.02-0.37 0.04-0.73 0.15-0.36 0.11-0.69 0.28-0.34 0.18-0.63 0.41-1.46-0.57-2.91-1.18-1.44-0.62-2.87-1.27-1.42-0.65-2.83-1.35-1.4-0.69-2.79-1.43c-4.11-2.18-9.86 2.48-6.84 6.84l2.58 3.72q0.01 0.13 0.09 0.26 0.43 1.21 1.04 2.35 0.6 1.13 1.36 2.17 0.77 1.03 1.67 1.95 0.9 0.92 1.93 1.69 1.01 1.12 2.12 2.14 0.59 0.6 1.36 0.97 0.76 0.36 1.61 0.44 0.84 0.07 1.66-0.14 0.82-0.22 1.51-0.71 3.25 1.06 6.56 1.91 3.31 0.85 6.66 1.49 3.36 0.65 6.75 1.08 3.39 0.44 6.8 0.66 0.1 0.01 0.19 0.01 0.1 0.01 0.19 0.01 0.1 0 0.2-0.01 0.09 0 0.19-0.01 6 1.06 12.07 1.55 6.07 0.48 12.15 0.39 6.09-0.08 12.14-0.75 6.06-0.67 12.02-1.9 0.45 0.44 1 0.75 0.55 0.31 1.17 0.47 0.61 0.15 1.24 0.14 0.63-0.01 1.24-0.18l24.33-5.7c6.68-1.57 13.48-2.89 19.73-5.81 10.83-5.1 18.36-17.51 12.25-29z"/>
	<path class="s5" d="m346.94 345.7q-0.01-0.73-0.22-1.44-0.21-0.7-0.6-1.32-0.39-0.62-0.93-1.11-0.54-0.5-1.19-0.83-0.41-0.28-0.88-0.47-0.46-0.19-0.96-0.27-0.49-0.08-1-0.06-0.5 0.03-0.98 0.17-0.43 0.07-0.84 0.23-0.41 0.16-0.77 0.4-0.37 0.24-0.67 0.55-0.31 0.31-0.54 0.68-1.99 1.62-4.08 3.11-2.09 1.49-4.28 2.84-2.18 1.35-4.45 2.56-2.27 1.2-4.61 2.26-2.56 1.04-5.15 1.98-2.6 0.95-5.23 1.8-2.62 0.85-5.28 1.6-2.66 0.75-5.34 1.4-5.58 1.46-11.22 2.65-5.64 1.19-11.32 2.11-5.69 0.92-11.42 1.57-5.73 0.64-11.48 1.02-5.79 0.37-11.59 0.45-5.8 0.08-11.59-0.13-5.8-0.2-11.57-0.7-5.78-0.49-11.53-1.27-2.53-0.31-5.04-0.74-2.51-0.43-5-0.97-2.49-0.55-4.95-1.21-2.46-0.67-4.89-1.45-1.16-0.39-2.31-0.8-1.15-0.42-2.28-0.86-1.14-0.45-2.26-0.93-1.13-0.47-2.24-0.98c-3.25-1.54-5.98-3.54-9.39-4.26-1.89-0.39-3.45 2-2.56 3.65 1.56 2.82 4.37 5.06 7.51 6.88q0.1 0.11 0.22 0.21 0.11 0.1 0.24 0.18 0.12 0.08 0.26 0.15 0.14 0.06 0.28 0.11 0.3 0.44 0.58 0.88 0.29 0.45 0.56 0.9 0.28 0.45 0.54 0.91 0.26 0.46 0.51 0.93 1.58 2.48 3.09 5 2.55 4.32 4.66 8.87 1.14 2.44 2.17 4.92 1.04 2.48 1.97 5 0.93 2.52 1.75 5.08 0.83 2.56 1.55 5.15c1.82 6.52 3.21 13.14 4.44 19.79 1.23 6.65 1.09 14.61 3.84 20.67q0.01 0.19 0.05 0.37 0.03 0.18 0.1 0.36 0.07 0.17 0.17 0.33 0.1 0.16 0.22 0.3c4.09 5 12.47 7.09 18.42 8.8q2.67 0.77 5.37 1.41 2.7 0.63 5.43 1.13 2.73 0.51 5.48 0.87 2.75 0.36 5.52 0.59 5.63 0.47 11.27 0.39 5.65-0.07 11.27-0.68 5.61-0.62 11.14-1.77 5.53-1.15 10.92-2.83c13.62-4.28 26.92-11 37.26-21 10.34-10 16.8-22.73 20.13-36.56 3.78-15.84 4.09-32.27 3.72-48.57zm-43.94 87.3c-14.69 8.92-31.63 13.46-48.71 14.5q-3.22 0.17-6.44 0.16-3.22 0-6.44-0.18-3.21-0.17-6.42-0.52-3.2-0.34-6.38-0.86-1.74-0.28-3.46-0.6-1.73-0.33-3.45-0.7-1.72-0.38-3.42-0.8-1.71-0.43-3.4-0.9c-2.53-0.69-5.09-1.75-7.69-2.39 0.39-3.88-0.71-8-1.31-11.84-0.6-3.84-1.29-7.85-2.07-11.76q-0.58-2.92-1.25-5.82-0.68-2.9-1.44-5.78-0.76-2.87-1.61-5.72-0.86-2.86-1.8-5.68-0.94-2.87-2.03-5.69-1.1-2.82-2.34-5.57-1.24-2.76-2.62-5.44-1.39-2.69-2.91-5.3c-0.47-0.79-1.06-1.88-1.74-3.09q2.28 0.74 4.6 1.38 2.31 0.64 4.65 1.19 2.33 0.55 4.69 1.01 2.36 0.45 4.73 0.81 6.1 0.95 12.25 1.57 6.15 0.62 12.32 0.91 6.17 0.29 12.35 0.25 6.17-0.04 12.34-0.41 6.34-0.34 12.65-1.03 6.31-0.68 12.57-1.7 6.26-1.03 12.46-2.39 6.2-1.36 12.32-3.05c11.06-3.07 23-6.7 32.59-13.4-0.23 13.53-0.83 27.2-4.51 40.24-4.62 16.38-14.43 29.75-29.08 38.6zm-79 12.3l0.31 0.07z"/>
	<path class="s5" d="m335.25 378c-10.56 4-20.86 8.21-31.89 11q-4.58 1.16-9.21 2.12-4.62 0.95-9.29 1.69-4.67 0.74-9.36 1.26-4.7 0.52-9.41 0.83-4.61 0.31-9.23 0.42-4.62 0.1-9.24 0-4.62-0.1-9.23-0.4-4.61-0.3-9.2-0.81c-6-0.68-12.08-1.56-18.06-2.64q-4.84-0.87-9.63-2c-1.87-0.44-3.7-1-6.05-1.54q1.22 3.1 2.28 6.26 0.2 0.6 0.38 1.2 1.79 5.47 3.24 11l0.17 0.35-0.06 0.11q1.32 5.11 2.37 10.3c0.78 3.9 1.45 7.83 2.07 11.76 0.62 3.93 1.7 8 1.31 11.84 2.6 0.63 5.16 1.7 7.69 2.39 2.53 0.69 4.82 1.23 7.25 1.75q0-1.07 0.13-2.13 0.13-1.06 0.38-2.1 0.25-1.04 0.63-2.04 0.37-1 0.86-1.95c0.2-0.48 0.38-1 0.54-1.45l0.32-0.12q1.45-2.43 3.32-4.55 1.88-2.12 4.12-3.85 2.24-1.73 4.77-3.01 2.52-1.28 5.24-2.07l0.14-0.06c5.41-1.57 11.34-1.72 16.46 0.26q-0.51 0.55-1 1.12h0.76q0.16 0.05 0.33 0.08 0.16 0.04 0.33 0.06 0.16 0.03 0.33 0.04 0.17 0 0.34 0l1.58-0.08q1.12-0.8 2.28-1.54 1.16-0.73 2.37-1.39 1.21-0.66 2.45-1.24 1.25-0.58 2.53-1.09c13.19-3.23 28.43-0.16 38.47 8.78q0.12 0.11 0.23 0.22 0.11 0.12 0.21 0.25 0.1 0.12 0.18 0.26 0.09 0.13 0.17 0.27h0.09q3.87-3.2 7.2-6.95 3.33-3.76 6.05-7.98 2.72-4.22 4.76-8.81 2.03-4.58 3.34-9.43 0.97-3.44 1.67-7 0.28-1.38 0.52-2.76c0.39-2.19 0.75-4.42 1-6.63z"/>
	<path class="s3" d="m254.31 447.53c17.08-1 34-5.58 48.71-14.5q1-0.61 1.99-1.25 0.98-0.65 1.94-1.33 0.95-0.67 1.89-1.38 0.93-0.72 1.84-1.46-0.08-0.15-0.17-0.29-0.09-0.14-0.2-0.28-0.1-0.13-0.22-0.25-0.11-0.13-0.24-0.24c-10-8.94-25.27-12-38.47-8.78q-2.86 1.11-5.54 2.62-2.68 1.51-5.12 3.38-2.44 1.87-4.59 4.07-2.15 2.19-3.97 4.67c-1.21 1.65-0.08-0.26 0-0.32q0.66-1.43 1.44-2.8 0.77-1.37 1.65-2.68 0.88-1.3 1.86-2.54 0.98-1.23 2.05-2.38c-7.74-3-17.37-1.12-24.22 3.18-6.45 4.06-12.88 11.94-12.73 19.95q3.22 0.7 6.49 1.21 3.17 0.51 6.37 0.86 3.19 0.34 6.4 0.52 3.21 0.17 6.42 0.18 3.21 0.01 6.42-0.16z"/>
	<path class="s5" d="m414.66 312.25q3.84-3.83 7.67-7.67 1.11-1.13 2.12-2.35 1.01-1.22 1.9-2.53 0.89-1.3 1.66-2.69 0.77-1.38 1.41-2.83c6.24-14.07 3-30.39-2.68-44.07-7.06-17-18.51-32.16-31.67-44.93-12.61-12.23-27.39-22.87-43.9-29.13-14-5.3-30.73-7.74-44.37-0.17-4.81 2.67-8.46 6.61-12.3 10.45l-2.27 2.27c-0.15 0.15-0.34 0.43-0.53 0.53-0.45 0.22-1.78-0.28-2.32-0.38q-7.55-1.45-15.23-2.18-6.87-0.65-13.77-0.71-6.9-0.06-13.78 0.47-6.88 0.53-13.68 1.65-6.81 1.12-13.5 2.82-6.38 1.63-12.6 3.78-6.22 2.15-12.24 4.81-6.02 2.67-11.8 5.83-5.78 3.15-11.27 6.78-5.68 3.76-11.02 7.99-5.34 4.22-10.3 8.89-4.97 4.66-9.52 9.72-4.56 5.06-8.67 10.49-3.82 5.05-7.22 10.38-3.4 5.34-6.37 10.93-2.96 5.59-5.47 11.41-2.51 5.81-4.54 11.8c-2.72 8.07-4.79 16.34-6.19 24.74-1.41 8.39-2.15 16.89-2.21 25.4-0.06 8.51 0.56 17.02 1.85 25.43 1.29 8.42 3.25 16.72 5.85 24.82q1.96 6.04 4.4 11.91 2.43 5.87 5.33 11.52 2.91 5.65 6.25 11.06 3.35 5.4 7.12 10.51 4.16 5.64 8.8 10.9 4.63 5.26 9.7 10.09 5.08 4.84 10.55 9.22 5.48 4.37 11.31 8.26 6.36 4.23 13.09 7.82 6.73 3.6 13.78 6.53 7.05 2.92 14.35 5.16 7.3 2.23 14.78 3.75 7.59 1.53 15.29 2.32 7.71 0.79 15.45 0.84 7.74 0.05 15.46-0.64 7.71-0.69 15.32-2.12 7.51-1.41 14.84-3.55 7.34-2.13 14.43-4.96 7.1-2.83 13.89-6.34 6.78-3.5 13.2-7.65 6.04-3.91 11.71-8.35 5.68-4.44 10.93-9.37 5.25-4.92 10.04-10.3 4.8-5.37 9.09-11.15c5.21-7.01 9.83-14.44 13.81-22.21 3.97-7.77 7.3-15.86 9.94-24.19 2.64-8.32 4.59-16.85 5.82-25.49 1.23-8.65 1.74-17.38 1.53-26.11q-0.08-3.68-0.32-7.35-0.24-3.67-0.64-7.33-0.41-3.66-0.98-7.29-0.57-3.63-1.31-7.24zm-104.75-120.12c8.38-8.38 22-6.61 32.25-3.31 12.32 4 23.6 11.05 33.57 19.21q4.18 3.39 8.07 7.1 3.9 3.7 7.5 7.7 3.6 4 6.88 8.27 3.27 4.26 6.21 8.77c6.14 9.52 11.35 20.26 12.94 31.59 1.11 7.89 0.21 16.61-5.64 22.54l-1.49 1.49q-2.25-6.9-5.13-13.57-2.88-6.67-6.35-13.05-3.48-6.37-7.52-12.4-4.05-6.03-8.63-11.67-4.63-5.71-9.77-10.97-5.13-5.26-10.73-10.03-5.59-4.77-11.6-9.01-6-4.24-12.37-7.91-3.53-2.03-7.16-3.88-3.64-1.84-7.36-3.5-3.72-1.65-7.52-3.11-3.81-1.46-7.68-2.72zm-105.1 286.19c-46.27-18.81-79.49-60.25-87.78-109.51-8.29-49.26 9.54-99.29 47.12-132.21 37.57-32.91 89.51-44 137.25-29.31 47.74 14.7 84.45 53.08 97.01 101.43q1.48 5.77 2.48 11.63 1.01 5.87 1.53 11.8 0.52 5.93 0.56 11.88 0.04 5.95-0.41 11.89-0.45 6.1-1.43 12.14-0.98 6.04-2.46 11.97-1.49 5.94-3.49 11.72-1.99 5.79-4.47 11.38-2.43 5.44-5.3 10.67-2.86 5.23-6.14 10.21-3.29 4.97-6.96 9.67-3.68 4.69-7.72 9.07c-9.89 10.66-21.33 19.76-33.93 26.99-12.61 7.23-26.24 12.52-40.43 15.68-14.18 3.16-28.77 4.15-43.25 2.95-14.49-1.21-28.71-4.59-42.18-10.05z"/>
</svg>