<svg version="1.2" xmlns="http://www.w3.org/2000/svg" viewBox="0 0 450 450" width="450" height="450">
	<title>pcgamingwiki</title>
	<style>
		.s0 { fill: #365798 } 
		.s1 { fill: #a5b6d9 } 
		.s2 { fill: #a5b6d8 } 
	</style>
	<path class="s0" d="m127 127.2l106.3-39.6 89.7 13.6v242.6 6.8l-88.9 11.8-107.1-35.7z"/>
	<path class="s1" d="m133 321.3l-0.3-188.3 92.1-34-0.2 251.3zm107.2 29.2v-250.2l73.4 9.9v231.2z"/>
	<path class="s0" d="m178 262.5l-41.2-2.4-0.3-72.6 41.6-3.9zm4-79.3l37-4.6-0.3 85.2-36.8-1.1zm-45.7-0.6v-46.1l41.7-13.6 0.3 55zm83.1-75.1l0.2 65-37.6 4.8v-56.4zm-59.9 215.5v-55.7l33.6 2.2v63.5zm58.5 19.1l-4.1-1.5c0.9-5.3-4.5-7.6-4.5-1.4l-4.4-1.3c-0.2-5.2-3.3-7.5-5-1.6l-2.3-0.7-0.1-65.8 2.9 0.2c-1 6.5 5.6 6.7 4.8 0.4l4.8 0.3c-1 6.8 5.5 6.8 4.8 0.3l3 0.2zm-80.9-76.3l19.5 1.4-0.1 25.6-19.4-2.7zm19.7 30.6l-0.2 26.2-19.6-4.8v-24.3zm87.3-192l66 8.7v225.1l-65.9 8.3z"/>
	<path class="s1" d="m147.9 175.1l5.8-21.8-3.8 1.7 5.1-18.7 6-1.7-4.5 12.6 4.5-2.4z"/>
	<path class="s2" d="m193 163.2c0.3-0.8 0.6-1.5 0.9-2.3 3.3 1.4 6.3 2.4 9.6 0.5 3.2-1.9 5.4-5.8 6.6-9.2 2.4-6.7 2.4-15.8-2-21.7-5.3-7.2-12.9-3.4-16.5 3.3-1.1 2.1-2.7 7.4-2.9 10.7-0.1 1.6 0 3.3 0.2 5 0.2 1.9 1.2 3.9 1 5.9-0.1 0.6-0.4 1-1.1 1.1-4-6.6-1.8-17.3 1.2-23.8 3-6.5 11.3-13.1 18-6.9 6.1 5.7 6.7 16.1 5 23.8-1.5 6.8-6.2 16.9-14.7 16.2-1.4-0.4-4.4-1.1-5.3-2.6zm4.9-10.9c-0.8-2.7 2.7-4.6 3.5-6.7 0.5-1.2 0-2.3-0.5-3.3-1.2-0.6-2.1-0.3-2.6 0.9-0.8 2.1-1.5 3.5-3 5.2-0.8-3.2-0.3-6.9 1.6-9.7 1-1.5 3.1-2.2 4.6-1.6 4.9 1.8 3.4 10.1 1.3 13.4-1.2 1.7-3.1 1.8-4.9 1.8zm0.8-6.1c-1.9 5.3-4.7 11.2-6.7 15.7-0.2-0.1-0.3-0.1-0.4-0.2-0.8-0.9-1.3-2-1.8-3.1-0.2-0.4 0-0.9 0.3-1.2 3.1-3.4 5.4-8.3 8.6-11.2z"/>
	<path class="s1" d="m171.7 306.2c-1.4 2.8-1 5.9-1.4 9-2.3-0.6-4-5.1-4.4-7.1 0.4-2.3 1.6-4.1 3.1-5.9 0.7-0.9 0.9-1.7 0.5-2.7-0.2-0.4-0.1-0.9-0.5-1.2-2.1 0.4-3.3 1.9-4.7 3.3-1.6-1.7-1.2-7.9 0-9.7 2-0.4 3.7 0.2 5.4 1.4 1.3-1.2 1.3-2.4 0.2-3.7-0.9-1-3.5-2.1-4-3.1-0.4-1.5 2.4-6.5 4.1-6.4 1.8 2.7 2.9 5.8 3.6 9 0.6 0.3 1.2 0.5 1.9 0.4 0.4-3.7-0.5-7.2-1.6-10.6 0.1-0.1 0.2-0.2 0.2-0.2 2 0.1 4 0.5 5.5 2 3.5 3.4-2.7 9.9 0.1 13.8 2.5-2.4 2.5-5.5 4.4-8.1 1.9 2.4 3.6 7.3 3.2 10.4-1.6 2-2.9 3.1-6.8 3.4 0.1 0.9-0.4 1.7-0.2 2.7 2.1 2.2 4.4 1.9 7.1 1.7 0.4 1.9-1.6 8-3.1 9.4-3-1.4-4.5-4.2-6.2-6.9-0.6 0.5-1.1 0.9-1.5 1.4 0.4 3.1 4.3 6.9 3.8 9.6-1.3 0.6-2.7 1-4.2 0.8-1.5-0.2-2.1-1-2.4-2.6-0.7-3.3 0.8-7.6-2.1-10.1zm28.1 5.2v-15.1l16.1 2.6v16zm-0.1-33l16.1 1.7v15.8l-16.1-2.3zm16.1 39.2v15.8l-16-4.4v-15.1zm-76-7.5v-6.8l3.2 0.5 3.9-3.9 0.2 16-3.9-5zm9.5-6c0.3-0.1 2.5-2 2.8-1.9 1.5 4.1 1.3 7.4-0.5 11.7l-2.1-2.9c0.7-3.1 0.7-3.9-0.3-6.9zm2.3 12.9c-51.1 38.7-25.5 19.3 0 0zm117.2 18.9l-16.7 2v-89.7l16.7-0.9zm21.3-121.7c-2.6 11.9-15.6 10.8-18.5 0.7l-21.9 0.7v-16.1l21.2-0.8c5.4-12.8 15.3-10.9 19.4 0l15.7 0.1 0.4 14.6zm-40.9-56.2v-5.7l57.3 1.8v4.6zm-109.8 125.9l14.8 2.3-4.5-10.3-1.9 3.6-3.2-6.9z"/>
	<path fill-rule="evenodd" class="s0" d="m280.8 219c-4.04 0-7.3-5.5-7.3-12.3 0-6.8 3.26-12.3 7.3-12.3 4.04 0 7.3 5.5 7.3 12.3 0 6.8-3.26 12.3-7.3 12.3z"/>
	<path class="s1" d="m169.1 236.4c-0.4 0.7-0.4 1.6 0.1 2.2l-6.2 9.5h1.6l5.9-8.7c0.8 0.1 1.6-0.2 2-0.9 0.6-0.9 0.3-2.1-0.6-2.7-1-0.6-2.2-0.3-2.8 0.6zm-26.3 7.1l-2.3 3.1 1.1 1 1.9-2.6 1.7 0.1c0.1 0.2 0.2 0.3 0.4 0.5 0.8 0.8 2 0.8 2.8 0 0.8-0.8 0.8-2 0-2.8-0.8-0.8-2-0.8-2.8 0-0.2 0.2-0.4 0.5-0.5 0.9zm4.8-16.3c-1 0-1.9 0.9-1.9 1.9 0 1 0.9 1.9 1.9 1.9 0.9 0 1.6-0.6 1.8-1.4l10.5 0.3 4.1 5.1c0 0.2-0.1 0.4-0.1 0.6 0 1.1 0.9 2 2 2 1.1 0 2-0.9 2-2 0-1.1-0.9-2-2-2-0.4 0-0.7 0.1-1 0.3l-4.5-5.4-11.4-0.3c-0.2-0.7-0.8-1-1.4-1zm-4.7 4h-1.9v-1.6c1.5 0 2.3-0.4 3.1 0.9 1.6 2.4 3 5 4.5 7.4 0.7 1.2 1.5 2.5 2.3 3.7 1.1 1.8 1.4 1.9 3.5 2 1.5 0.1 3 0.1 4.5 0.1 1.6 0 1.5-1.3 3-1.2 1.3 1.2 1.3 2.8 0 4-1.4 0.1-1.3-1.4-2.3-1.4h-4.6c-2.3 0-2.9 0.5-4.1-1.3-2.6-4.2-5.3-8.4-8-12.6zm1.7 6.3c0 1-0.9 1.9-1.9 1.9-1 0-1.9-0.9-1.9-1.9 0-1 0.9-1.9 1.9-1.9 1 0 1.9 0.9 1.9 1.9zm3.1-36.8c-0.8 0-1.5 0.6-1.8 1.3l-5.4 0.2 0.1 1.5 5.4-0.2c0.3 0.7 1 1.2 1.9 1.2 1.1 0 1.9-1 1.9-2.1 0-1.1-1-1.9-2.1-1.9zm13.4 4.8c-1.1 0-2 0.9-1.9 2 0 1.1 0.9 2 2 1.9 0.8 0 1.4-0.5 1.7-1.2l6-0.2c0.3 0.7 1 1.1 1.8 1.1 1.1 0 2-0.9 1.9-2 0-1.1-0.9-2-2-1.9-0.9 0-1.6 0.6-1.8 1.4l-5.8 0.2c-0.3-0.8-1-1.4-1.9-1.3zm-10.5-7.2l-1 1.1 4.7 4.1 19.2-0.7-0.1-1.5-18.5 0.7zm-9.9 12.2v-1.4l16.2-0.9 16.9 24.6-1.3 0.8-16.6-24zm31.4 6c0.5-0.6 0.6-1.5 0.3-2.2l1.6-2.3v-2l-2.8 3.4c-0.7-0.3-1.6 0-2.1 0.6-0.7 0.8-0.6 2.1 0.2 2.8 0.8 0.6 2.1 0.5 2.8-0.3zm-7.6 0.1c0.5 0.7 1.3 1 2.1 0.8l7.3 10.5v-2.3l-6-9c0.4-0.7 0.4-1.5 0-2.2-0.6-0.9-1.8-1.1-2.7-0.5-1.2 0.6-1.4 1.9-0.7 2.7zm-8.3-2.2c-0.8 0-1.5 0.6-1.8 1.3l-13.6 0.7 0.1 1.5 13.6-0.7c0.3 0.7 1 1.2 1.9 1.2 1.1 0 1.9-1 1.9-2.1 0-1.1-1-2-2.1-1.9zm4.2 7.8l-19.3 0.5v1.5l18.6-0.5 4.1 5.3c0 0.2-0.1 0.4-0.1 0.6 0 1.1 0.9 2 2 2 1.1 0 2-0.9 2-2 0-1.1-0.9-2-2-2-0.4 0-0.7 0.1-1 0.3zm9 25c0.3 0.6 1.2 0 1.4 0.9-0.2 1-2.1 0.1-2.7 0.2-0.3-1 2-3.6 2.6-4.5 0.7-0.3 2.2 0 3 0 0.1 0.7 0.1 1.3-0.4 1.8-0.8 0-1.6-0.3-2.4-0.4-0.5 0.7-1 1.3-1.5 2zm-18.6-13.6c-1.1 0-2 0.9-1.9 2 0 1.1 0.9 2 2 1.9 0.8 0 1.4-0.5 1.7-1.2l5.3-0.1c0.3 0.7 1 1.1 1.8 1.1 1.1 0 2-0.9 1.9-2 0-1.1-0.9-2-2-1.9-0.9 0-1.6 0.6-1.8 1.4l-5.1 0.1c-0.3-0.8-1-1.4-1.9-1.3z"/>
	<path fill-rule="evenodd" class="s1" d="m188.8 206.9h22.6v31.6h-22.6z"/>
</svg>